<svg width="29" height="23" viewBox="0 0 29 23" fill="none" xmlns="http://www.w3.org/2000/svg">
<path d="M11.1538 20.9091C11.1538 21.4754 10.9331 21.9654 10.4916 22.3793C10.0501 22.7931 9.52724 23 8.92308 23C8.31891 23 7.79607 22.7931 7.35457 22.3793C6.91306 21.9654 6.69231 21.4754 6.69231 20.9091C6.69231 20.3428 6.91306 19.8527 7.35457 19.4389C7.79607 19.0251 8.31891 18.8182 8.92308 18.8182C9.52724 18.8182 10.0501 19.0251 10.4916 19.4389C10.9331 19.8527 11.1538 20.3428 11.1538 20.9091ZM26.7692 20.9091C26.7692 21.4754 26.5485 21.9654 26.107 22.3793C25.6655 22.7931 25.1426 23 24.5385 23C23.9343 23 23.4115 22.7931 22.97 22.3793C22.5284 21.9654 22.3077 21.4754 22.3077 20.9091C22.3077 20.3428 22.5284 19.8527 22.97 19.4389C23.4115 19.0251 23.9343 18.8182 24.5385 18.8182C25.1426 18.8182 25.6655 19.0251 26.107 19.4389C26.5485 19.8527 26.7692 20.3428 26.7692 20.9091ZM29 3.13636V11.5C29 11.7614 28.9041 11.9928 28.7124 12.1942C28.5207 12.3957 28.2855 12.5128 28.0066 12.5455L9.8119 14.5384C9.96294 15.1918 10.0385 15.5729 10.0385 15.6818C10.0385 15.8561 9.89904 16.2045 9.62019 16.7273H25.6538C25.9559 16.7273 26.2173 16.8307 26.4381 17.0376C26.6589 17.2446 26.7692 17.4896 26.7692 17.7727C26.7692 18.0559 26.6589 18.3009 26.4381 18.5078C26.2173 18.7147 25.9559 18.8182 25.6538 18.8182H7.80769C7.50561 18.8182 7.24419 18.7147 7.02344 18.5078C6.80268 18.3009 6.69231 18.0559 6.69231 17.7727C6.69231 17.6529 6.73878 17.4814 6.83173 17.2582C6.92468 17.0349 7.01763 16.8389 7.11058 16.6701C7.20353 16.5013 7.32843 16.2835 7.48528 16.0167C7.64213 15.7499 7.73217 15.5893 7.75541 15.5348L4.67067 2.09091H1.11538C0.813301 2.09091 0.551883 1.98745 0.33113 1.78054C0.110377 1.57363 0 1.3286 0 1.04545C0 0.762311 0.110377 0.517282 0.33113 0.310369C0.551883 0.103456 0.813301 0 1.11538 0H5.57692C5.76282 0 5.92839 0.035393 6.07362 0.106179C6.21885 0.176965 6.33213 0.261364 6.41346 0.359375C6.49479 0.457386 6.57031 0.590791 6.64002 0.759588C6.70974 0.928385 6.75621 1.06996 6.77945 1.1843C6.80268 1.29865 6.83464 1.45928 6.8753 1.66619C6.91597 1.87311 6.94211 2.01468 6.95373 2.09091H27.8846C28.1867 2.09091 28.4481 2.19437 28.6689 2.40128C28.8896 2.60819 29 2.85322 29 3.13636Z" fill="black"/>
</svg>
