<svg width="18" height="17" viewBox="0 0 18 17" fill="none" xmlns="http://www.w3.org/2000/svg">
<path fill-rule="evenodd" clip-rule="evenodd" d="M5.46938 0.051C6.37578 0.00927271 6.66478 0 8.97369 0C11.2826 0 11.5716 0.0100454 12.4772 0.051C13.3829 0.0919545 14.0011 0.236455 14.542 0.445864C15.1084 0.659909 15.6222 0.9945 16.0472 1.42723C16.48 1.85145 16.8138 2.36455 17.0271 2.93173C17.2372 3.47264 17.381 4.09082 17.4227 4.99491C17.4644 5.90286 17.4737 6.19186 17.4737 8.5C17.4737 10.8089 17.4636 11.0979 17.4227 12.0043C17.3817 12.9084 17.2372 13.5266 17.0271 14.0675C16.8138 14.6348 16.4794 15.1487 16.0472 15.5735C15.6222 16.0063 15.1084 16.3401 14.542 16.5534C14.0011 16.7635 13.3829 16.9073 12.4788 16.949C11.5716 16.9907 11.2826 17 8.97369 17C6.66478 17 6.37578 16.99 5.46938 16.949C4.56528 16.908 3.9471 16.7635 3.40619 16.5534C2.83895 16.3401 2.32501 16.0057 1.90015 15.5735C1.46771 15.1491 1.13307 14.6354 0.919557 14.0683C0.710148 13.5274 0.566421 12.9092 0.524694 12.0051C0.482967 11.0971 0.473694 10.8081 0.473694 8.5C0.473694 6.19109 0.483739 5.90209 0.524694 4.99645C0.565648 4.09082 0.710148 3.47264 0.919557 2.93173C1.13339 2.36461 1.46829 1.85092 1.90092 1.42645C2.32518 0.994115 2.8386 0.659479 3.40542 0.445864C3.94633 0.236455 4.56451 0.0927273 5.4686 0.051H5.46938ZM12.4085 1.581C11.5121 1.54005 11.2432 1.53155 8.97369 1.53155C6.70419 1.53155 6.43528 1.54005 5.53892 1.581C4.70978 1.61886 4.26006 1.75718 3.96024 1.87386C3.56383 2.02841 3.28024 2.21155 2.98274 2.50905C2.70073 2.7834 2.4837 3.1174 2.34756 3.48655C2.23088 3.78636 2.09256 4.23609 2.05469 5.06523C2.01374 5.96159 2.00524 6.2305 2.00524 8.5C2.00524 10.7695 2.01374 11.0384 2.05469 11.9348C2.09256 12.7639 2.23088 13.2136 2.34756 13.5135C2.48356 13.882 2.70069 14.2166 2.98274 14.491C3.25706 14.773 3.59165 14.9901 3.96024 15.1261C4.26006 15.2428 4.70978 15.3811 5.53892 15.419C6.43528 15.46 6.70342 15.4685 8.97369 15.4685C11.244 15.4685 11.5121 15.46 12.4085 15.419C13.2376 15.3811 13.6873 15.2428 13.9871 15.1261C14.3836 14.9716 14.6671 14.7885 14.9646 14.491C15.2467 14.2166 15.4638 13.882 15.5998 13.5135C15.7165 13.2136 15.8548 12.7639 15.8927 11.9348C15.9336 11.0384 15.9421 10.7695 15.9421 8.5C15.9421 6.2305 15.9336 5.96159 15.8927 5.06523C15.8548 4.23609 15.7165 3.78636 15.5998 3.48655C15.4453 3.09014 15.2621 2.80655 14.9646 2.50905C14.6903 2.22706 14.3563 2.01003 13.9871 1.87386C13.6873 1.75718 13.2376 1.61886 12.4085 1.581ZM7.88801 11.1203C8.49434 11.3727 9.16949 11.4068 9.79814 11.2167C10.4268 11.0266 10.97 10.6242 11.3348 10.0781C11.6997 9.53203 11.8637 8.87622 11.7988 8.22267C11.7339 7.56913 11.4441 6.95839 10.9789 6.49477C10.6824 6.19841 10.3238 5.97149 9.92904 5.83034C9.53427 5.68919 9.11312 5.63732 8.69589 5.67848C8.27867 5.71963 7.87577 5.85277 7.51618 6.06833C7.15659 6.28388 6.84927 6.57648 6.61634 6.92507C6.3834 7.27365 6.23066 7.66954 6.16909 8.08424C6.10753 8.49894 6.13867 8.92214 6.26029 9.32335C6.38191 9.72457 6.59097 10.0938 6.87243 10.4046C7.15389 10.7153 7.50074 10.9597 7.88801 11.1203ZM5.88433 5.41064C6.29003 5.00494 6.77167 4.68312 7.30174 4.46355C7.83182 4.24399 8.39995 4.13098 8.97369 4.13098C9.54744 4.13098 10.1156 4.24399 10.6456 4.46355C11.1757 4.68312 11.6574 5.00494 12.0631 5.41064C12.4688 5.81634 12.7906 6.29797 13.0101 6.82805C13.2297 7.35812 13.3427 7.92625 13.3427 8.5C13.3427 9.07375 13.2297 9.64188 13.0101 10.172C12.7906 10.702 12.4688 11.1837 12.0631 11.5894C11.2437 12.4087 10.1324 12.869 8.97369 12.869C7.81496 12.869 6.70368 12.4087 5.88433 11.5894C5.06498 10.77 4.60467 9.65874 4.60467 8.5C4.60467 7.34126 5.06498 6.22999 5.88433 5.41064ZM14.3117 4.78164C14.4122 4.6868 14.4927 4.57275 14.5484 4.44625C14.6041 4.31975 14.6338 4.18337 14.6358 4.04517C14.6378 3.90698 14.6121 3.76979 14.5601 3.64172C14.5082 3.51365 14.431 3.3973 14.3333 3.29958C14.2356 3.20185 14.1192 3.12472 13.9912 3.07276C13.8631 3.02081 13.7259 2.99507 13.5877 2.99709C13.4495 2.9991 13.3131 3.02882 13.1866 3.08449C13.0601 3.14016 12.9461 3.22065 12.8512 3.32118C12.6668 3.5167 12.5658 3.77641 12.5697 4.04517C12.5737 4.31393 12.6822 4.57059 12.8722 4.76065C13.0623 4.95071 13.3189 5.05922 13.5877 5.06314C13.8565 5.06706 14.1162 4.96608 14.3117 4.78164Z" fill="#F8F8F8"/>
</svg>
