<svg width="20" height="17" viewBox="0 0 20 17" fill="none" xmlns="http://www.w3.org/2000/svg">
<path d="M19.4737 2.01651C18.775 2.35727 18.0244 2.58752 17.2353 2.69159C18.0495 2.15539 18.6586 1.31147 18.949 0.317296C18.1841 0.81738 17.3469 1.16939 16.4738 1.35801C15.8867 0.668066 15.1091 0.210762 14.2616 0.057094C13.4142 -0.0965741 12.5444 0.0619913 11.7872 0.508172C11.03 0.954353 10.4279 1.66319 10.0742 2.52462C9.72059 3.38606 9.63524 4.35189 9.83144 5.27219C8.28146 5.18653 6.76516 4.74313 5.38095 3.97075C3.99674 3.19837 2.77555 2.11428 1.79665 0.78884C1.46193 1.42432 1.26947 2.16111 1.26947 2.94578C1.2691 3.65217 1.42715 4.34774 1.7296 4.97078C2.03206 5.59382 2.46956 6.12505 3.00329 6.51736C2.3843 6.49568 1.77897 6.31159 1.23768 5.98042V6.03568C1.23761 7.02642 1.54899 7.98667 2.11896 8.7535C2.68894 9.52033 3.48241 10.0465 4.36474 10.2427C3.79052 10.4138 3.1885 10.439 2.60414 10.3164C2.85308 11.1689 3.338 11.9143 3.991 12.4484C4.644 12.9825 5.4324 13.2785 6.24582 13.2949C4.86499 14.4879 3.15967 15.1351 1.4042 15.1322C1.09323 15.1323 0.782531 15.1123 0.473694 15.0724C2.2556 16.3334 4.32988 17.0026 6.44833 17C13.6196 17 17.5399 10.4629 17.5399 4.79328C17.5399 4.60908 17.5357 4.42304 17.5282 4.23884C18.2907 3.63189 18.949 2.8803 19.472 2.01927L19.4737 2.01651Z" fill="#F8F8F8"/>
</svg>
