<svg width="23" height="16" viewBox="0 0 23 16" fill="none" xmlns="http://www.w3.org/2000/svg">
<path d="M22.1632 3.13036C22.0366 2.67861 21.7899 2.26962 21.4494 1.94686C21.0993 1.61418 20.6701 1.3762 20.2025 1.2554C18.4524 0.794111 11.4409 0.794111 11.4409 0.794111C8.51784 0.760854 5.59551 0.907126 2.69041 1.2321C2.22277 1.36183 1.79445 1.60512 1.44353 1.94034C1.09873 2.27209 0.848987 2.68119 0.718522 3.12943C0.40512 4.81778 0.252848 6.53209 0.263759 8.24925C0.252576 9.96486 0.404474 11.6786 0.718522 13.3691C0.846191 13.8154 1.09501 14.2227 1.44074 14.5516C1.78647 14.8806 2.217 15.1182 2.69041 15.244C4.4638 15.7044 11.4409 15.7044 11.4409 15.7044C14.3676 15.7377 17.2937 15.5914 20.2025 15.2664C20.6701 15.1456 21.0993 14.9076 21.4494 14.5749C21.7898 14.2522 22.0362 13.8432 22.1623 13.3914C22.4839 11.7037 22.6402 9.98871 22.6292 8.27068C22.6534 6.54538 22.4972 4.82227 22.1632 3.12943V3.13036ZM9.21179 11.44V5.05938L15.0454 8.25018L9.21179 11.44Z" fill="#F8F8F8"/>
</svg>
